<?xml version="1.0" standalone="no"?>
<!DOCTYPE svg PUBLIC "-//W3C//DTD SVG 20010904//EN"
 "http://www.w3.org/TR/2001/REC-SVG-20010904/DTD/svg10.dtd">
<svg version="1.0" xmlns="http://www.w3.org/2000/svg"
 width="1577.000000pt" height="1577.000000pt" viewBox="0 0 1577.000000 1577.000000"
 preserveAspectRatio="xMidYMid meet">
<metadata>
Created by potrace 1.14, written by Peter Selinger 2001-2017
</metadata>
<g transform="translate(0.000000,1577.000000) scale(0.100000,-0.100000)"
fill="#000000" stroke="none">
<path d="M10 7885 l0 -7875 7875 0 7875 0 0 7875 0 7875 -7875 0 -7875 0 0
-7875z m11510 156 c0 -1920 -4 -3492 -8 -3495 -10 -6 -381 -43 -507 -51 -660
-40 -1100 -60 -1660 -75 -209 -6 -481 -15 -605 -20 -124 -5 -605 -14 -1070
-20 -465 -5 -1041 -15 -1280 -20 -239 -5 -698 -12 -1020 -15 -322 -3 -708 -8
-857 -12 l-273 -6 0 3601 0 3602 3640 0 3640 0 0 -3489z"/>
</g>
</svg>
